<svg xmlns="http://www.w3.org/2000/svg" viewBox="0 0 1160 900" width="1160" height="900" role="img" aria-hidden="true">
  <!-- Marcador de posicion sobrio del tablero ejecutivo. No es una captura. -->
  <rect width="1160" height="900" fill="#1C2029"/>
  <path d="M0 92H1160" fill="none" stroke="#2E323C" stroke-width="1"/>
  <rect x="40" y="38" width="132" height="14" rx="7" fill="#3A3F4B"/>
  <g fill="#242832">
    <rect x="960" y="32" width="72" height="26" rx="13"/>
    <rect x="1044" y="32" width="76" height="26" rx="13"/>
  </g>
  <!-- Cuatro indicadores -->
  <g>
    <rect x="40" y="140" width="256" height="132" rx="12" fill="#242832"/>
    <rect x="312" y="140" width="256" height="132" rx="12" fill="#242832"/>
    <rect x="584" y="140" width="256" height="132" rx="12" fill="#242832"/>
    <rect x="856" y="140" width="264" height="132" rx="12" fill="#242832"/>
    <g fill="#2E323C">
      <rect x="64" y="168" width="92" height="9" rx="4.5"/>
      <rect x="336" y="168" width="92" height="9" rx="4.5"/>
      <rect x="608" y="168" width="92" height="9" rx="4.5"/>
      <rect x="880" y="168" width="92" height="9" rx="4.5"/>
    </g>
    <g fill="#3A3F4B">
      <rect x="64" y="198" width="132" height="26" rx="6"/>
      <rect x="336" y="198" width="116" height="26" rx="6"/>
      <rect x="608" y="198" width="148" height="26" rx="6"/>
      <rect x="880" y="198" width="124" height="26" rx="6"/>
    </g>
    <rect x="64" y="240" width="46" height="8" rx="4" fill="#F0A93E" opacity=".55"/>
  </g>
  <!-- Grafico de barras -->
  <rect x="40" y="304" width="760" height="372" rx="12" fill="#242832"/>
  <rect x="64" y="332" width="148" height="10" rx="5" fill="#2E323C"/>
  <g fill="#343945">
    <rect x="72" y="536" width="46" height="104" rx="4"/>
    <rect x="146" y="500" width="46" height="140" rx="4"/>
    <rect x="220" y="556" width="46" height="84" rx="4"/>
    <rect x="294" y="462" width="46" height="178" rx="4"/>
    <rect x="368" y="508" width="46" height="132" rx="4"/>
    <rect x="442" y="430" width="46" height="210" rx="4"/>
    <rect x="516" y="486" width="46" height="154" rx="4"/>
    <rect x="590" y="446" width="46" height="194" rx="4"/>
    <rect x="664" y="404" width="46" height="236" rx="4"/>
  </g>
  <rect x="738" y="382" width="46" height="258" rx="4" fill="#F0A93E" opacity=".55"/>
  <!-- Lista lateral -->
  <rect x="824" y="304" width="296" height="372" rx="12" fill="#242832"/>
  <rect x="848" y="332" width="118" height="10" rx="5" fill="#2E323C"/>
  <g fill="#2E323C">
    <rect x="848" y="376" width="248" height="9" rx="4.5"/>
    <rect x="848" y="414" width="196" height="9" rx="4.5"/>
    <rect x="848" y="452" width="224" height="9" rx="4.5"/>
    <rect x="848" y="490" width="172" height="9" rx="4.5"/>
    <rect x="848" y="528" width="236" height="9" rx="4.5"/>
    <rect x="848" y="566" width="188" height="9" rx="4.5"/>
    <rect x="848" y="604" width="212" height="9" rx="4.5"/>
  </g>
  <!-- Tabla inferior -->
  <rect x="40" y="708" width="1080" height="156" rx="12" fill="#242832"/>
  <g fill="#2E323C">
    <rect x="64" y="740" width="180" height="9" rx="4.5"/>
    <rect x="64" y="784" width="1032" height="8" rx="4"/>
    <rect x="64" y="816" width="1032" height="8" rx="4"/>
  </g>
</svg>
